<?xml version="1.0" encoding="UTF-8" standalone="no"?>
<!DOCTYPE svg PUBLIC "-//W3C//DTD SVG 1.1//EN" "http://www.w3.org/Graphics/SVG/1.1/DTD/svg11.dtd">
<svg width="100%" height="100%" viewBox="0 0 256 222" version="1.1" xmlns="http://www.w3.org/2000/svg" xmlns:xlink="http://www.w3.org/1999/xlink" xml:space="preserve" xmlns:serif="http://www.serif.com/" style="fill-rule:evenodd;clip-rule:evenodd;stroke-linejoin:round;stroke-miterlimit:2;">
    <g transform="matrix(1,0,0,1,-4708,-1024)">
        <g transform="matrix(0.5,0,0,0.5,2210,768)">
            <path d="M5289.138,886.08C5290.031,887.627 5290.031,889.533 5289.138,891.08C5283.784,900.353 5264.928,933.014 5256.33,947.905C5255.437,949.452 5253.786,950.405 5252,950.405C5250.214,950.405 5248.563,949.452 5247.67,947.905C5221.263,902.168 5082.162,661.237 5055.756,615.5C5054.863,613.953 5054.863,612.047 5055.756,610.5C5056.649,608.953 5058.3,608 5060.086,608C5077.246,608 5114.831,608 5125.519,608C5127.305,608 5128.956,608.953 5129.849,610.5C5143.664,634.429 5252,822.072 5252,822.072L5252.091,821.913C5252.091,821.913 5282.142,873.962 5289.138,886.08ZM5270.47,795.08C5269.577,793.533 5269.577,791.627 5270.47,790.08C5284.28,766.161 5392.53,578.667 5392.53,578.667L5392.495,578.667C5392.495,578.667 5422.545,526.618 5429.542,514.5C5430.435,512.953 5432.086,512 5433.872,512C5444.563,512 5482.173,512 5499.34,512C5501.126,512 5502.777,512.953 5503.67,514.5C5504.563,516.047 5504.563,517.953 5503.67,519.5C5477.271,565.224 5338.246,806.023 5311.847,851.747C5310.954,853.294 5309.303,854.247 5307.517,854.247C5305.731,854.247 5304.08,853.294 5303.187,851.747C5294.607,836.886 5275.814,804.336 5270.47,795.08ZM5037.377,578.667C5035.59,578.667 5033.94,577.714 5033.047,576.167C5027.703,566.911 5008.91,534.361 5000.33,519.5C4999.437,517.953 4999.437,516.047 5000.33,514.5C5001.223,512.953 5002.874,512 5004.66,512C5057.47,512 5335.644,512 5388.454,512C5390.24,512 5391.891,512.953 5392.784,514.5C5393.677,516.047 5393.677,517.953 5392.784,519.5C5384.204,534.361 5365.411,566.911 5360.067,576.167C5359.174,577.714 5357.524,578.667 5355.737,578.667C5325.517,578.667 5067.597,578.667 5037.377,578.667Z"/>
        </g>
        <g transform="matrix(0.180422,0,0,0.180422,3888.42387,979.623957)">
            <path d="M5496,532.785C5498.475,528.497 5498.475,523.215 5496,518.928C5493.525,514.641 5488.95,512 5484,512C5398.024,512 5105.976,512 5020,512C5015.05,512 5010.475,514.641 5008,518.928C5005.525,523.215 5005.525,528.497 5008,532.785C5050.988,607.242 5197.012,860.163 5240,934.62C5242.475,938.908 5247.05,941.549 5252,941.549C5256.95,941.549 5261.525,938.908 5264,934.62C5306.988,860.163 5453.012,607.242 5496,532.785Z"/>
        </g>
    </g>
</svg>
